<?xml version="1.0" encoding="utf-8"?>
<!-- Generator: Adobe Illustrator 26.5.0, SVG Export Plug-In . SVG Version: 6.00 Build 0)  -->
<svg version="1.1" id="OBJECTS" xmlns="http://www.w3.org/2000/svg" xmlns:xlink="http://www.w3.org/1999/xlink" x="0px" y="0px"
	 viewBox="0 0 500 500" style="enable-background:new 0 0 500 500;" xml:space="preserve">
<style type="text/css">
	.st0{fill:#191919;}
</style>
<g>
	<g>
		<g>
			<path class="st0" d="M245.85,224.91l-10.13,1.93V186.3l10.13-1.93V224.91z M260.38,206.32l-15.25,2.91v-9.5l15.25-2.91V206.32z
				 M259.67,181.73l10.13-1.93v40.54l-10.13,1.93V181.73z"/>
			<path class="st0" d="M285.25,217.9c-2.22,0.42-4.09,0.36-5.63-0.2s-2.7-1.49-3.5-2.8c-0.8-1.31-1.2-2.88-1.2-4.69
				c0-1.93,0.43-3.68,1.3-5.26c0.87-1.58,2.21-2.91,4.02-4.01c1.81-1.1,4.14-1.92,7.01-2.47l6.55-1.25v5.73l-5.22,1
				c-1.57,0.3-2.67,0.8-3.3,1.5c-0.63,0.7-0.95,1.53-0.95,2.5c0,0.97,0.32,1.68,0.97,2.13c0.65,0.46,1.53,0.58,2.66,0.36
				c1.06-0.2,2.02-0.69,2.89-1.45c0.87-0.77,1.51-1.8,1.92-3.12l1.33,3.8c-0.51,2.26-1.51,4.08-2.99,5.47
				C289.62,216.52,287.67,217.44,285.25,217.9z M293.43,215.82v-5.85l-0.67-1.32v-10.77c0-1.74-0.47-2.99-1.41-3.76
				c-0.94-0.77-2.43-0.95-4.48-0.56c-1.33,0.25-2.68,0.75-4.04,1.5c-1.36,0.74-2.52,1.63-3.48,2.66l-3.27-6.84
				c1.57-1.46,3.45-2.72,5.65-3.77s4.39-1.79,6.57-2.21c4.5-0.86,7.99-0.36,10.46,1.5c2.47,1.87,3.71,5.29,3.71,10.27v17.43
				L293.43,215.82z"/>
			<path class="st0" d="M308.63,224.15v-42.62l9.26-1.77v5.33l-0.05,10.38l0.51,10.33v16.51L308.63,224.15z M326.07,210.1
				c-2.35,0.45-4.37,0.25-6.04-0.61s-2.94-2.39-3.81-4.6s-1.3-5.17-1.3-8.87c0-3.74,0.41-6.88,1.23-9.42
				c0.82-2.53,2.05-4.53,3.71-6.01c1.65-1.48,3.73-2.45,6.22-2.93c2.52-0.48,4.82-0.25,6.88,0.68c2.06,0.94,3.7,2.5,4.91,4.68
				c1.21,2.18,1.82,4.93,1.82,8.25c0,3.32-0.61,6.31-1.82,8.98c-1.21,2.66-2.85,4.85-4.91,6.56
				C330.89,208.53,328.6,209.62,326.07,210.1z M324.03,201.75c1.09-0.21,2.07-0.69,2.94-1.43c0.87-0.75,1.57-1.73,2.1-2.95
				c0.53-1.22,0.79-2.62,0.79-4.21c0-1.58-0.26-2.88-0.79-3.9c-0.53-1.02-1.23-1.73-2.1-2.15c-0.87-0.41-1.85-0.51-2.94-0.31
				c-1.09,0.21-2.07,0.68-2.94,1.43c-0.87,0.75-1.57,1.73-2.1,2.95c-0.53,1.22-0.79,2.62-0.79,4.21c0,1.58,0.26,2.88,0.79,3.9
				c0.53,1.02,1.23,1.73,2.1,2.15C321.96,201.85,322.93,201.96,324.03,201.75z"/>
			<path class="st0" d="M344.18,217.36v-42.63l9.26-1.77v5.33l-0.05,10.38L353.9,199v16.51L344.18,217.36z M361.63,203.31
				c-2.35,0.45-4.37,0.25-6.04-0.61c-1.67-0.86-2.94-2.39-3.81-4.6c-0.87-2.21-1.3-5.17-1.3-8.87c0-3.74,0.41-6.88,1.23-9.41
				c0.82-2.53,2.05-4.53,3.71-6.01c1.65-1.47,3.73-2.45,6.21-2.92c2.52-0.48,4.82-0.25,6.88,0.68c2.06,0.94,3.7,2.5,4.91,4.68
				c1.21,2.18,1.82,4.93,1.82,8.25c0,3.32-0.61,6.31-1.82,8.98c-1.21,2.66-2.85,4.85-4.91,6.55
				C366.45,201.73,364.15,202.83,361.63,203.31z M359.58,194.96c1.09-0.21,2.07-0.69,2.94-1.43c0.87-0.75,1.57-1.73,2.1-2.95
				s0.79-2.62,0.79-4.21c0-1.58-0.26-2.88-0.79-3.9s-1.23-1.74-2.1-2.15c-0.87-0.41-1.85-0.51-2.94-0.31
				c-1.09,0.21-2.07,0.68-2.94,1.43s-1.57,1.73-2.1,2.95c-0.53,1.22-0.79,2.62-0.79,4.21c0,1.58,0.26,2.88,0.79,3.9
				c0.53,1.02,1.23,1.73,2.1,2.15S358.49,195.17,359.58,194.96z"/>
			<path class="st0" d="M387.52,199.18l-12.23-30.39l9.98-1.91l9,23.65L387.52,199.18z M383.73,210.32
				c-1.47,0.28-2.94,0.3-4.43,0.06c-1.48-0.24-2.69-0.69-3.61-1.37l3.38-8.35c0.58,0.47,1.25,0.79,2.02,0.97
				c0.77,0.18,1.53,0.2,2.28,0.06c1.06-0.2,1.89-0.63,2.51-1.29c0.61-0.66,1.14-1.61,1.59-2.85l1.28-3.89l0.77-1.25l9.41-28.15
				l9.26-1.77l-11.97,34.95c-0.96,2.88-2.06,5.21-3.3,6.97c-1.25,1.76-2.63,3.1-4.14,4C387.25,209.34,385.57,209.97,383.73,210.32z"
				/>
		</g>
		<g>
			<path class="st0" d="M257.19,273.42c-2.93,0.56-5.75,0.68-8.47,0.37c-2.71-0.31-4.92-0.96-6.62-1.95l3.33-9.09
				c1.6,0.85,3.45,1.46,5.55,1.81c2.1,0.35,4.19,0.33,6.27-0.07c1.4-0.27,2.52-0.63,3.38-1.08c0.85-0.45,1.47-0.96,1.87-1.52
				c0.39-0.56,0.59-1.16,0.59-1.82c0-0.93-0.38-1.59-1.12-1.99c-0.75-0.4-1.72-0.65-2.92-0.77c-1.19-0.12-2.51-0.21-3.96-0.28
				c-1.45-0.07-2.9-0.24-4.35-0.5c-1.45-0.26-2.77-0.72-3.96-1.36c-1.19-0.64-2.17-1.59-2.92-2.86c-0.75-1.27-1.12-2.98-1.12-5.14
				c0-2.43,0.59-4.75,1.77-6.94c1.18-2.19,2.94-4.11,5.29-5.76s5.29-2.81,8.8-3.48c2.35-0.45,4.66-0.59,6.93-0.43
				s4.29,0.66,6.06,1.48l-3.12,9.11c-1.71-0.72-3.39-1.18-5.06-1.38c-1.67-0.2-3.29-0.15-4.86,0.15c-1.4,0.27-2.53,0.65-3.38,1.14
				c-0.85,0.49-1.47,1.04-1.84,1.65c-0.38,0.61-0.56,1.27-0.56,1.96c0,0.89,0.37,1.52,1.1,1.9c0.73,0.38,1.71,0.62,2.92,0.72
				c1.21,0.1,2.54,0.18,3.99,0.25c1.45,0.07,2.9,0.23,4.35,0.47c1.45,0.24,2.77,0.69,3.96,1.33s2.16,1.6,2.89,2.87
				c0.73,1.27,1.1,2.97,1.1,5.09c0,2.36-0.59,4.64-1.77,6.85c-1.18,2.21-2.93,4.14-5.27,5.79
				C263.68,271.58,260.74,272.75,257.19,273.42z"/>
			<path class="st0" d="M295.31,233.42c2.15-0.41,4.09-0.29,5.83,0.36c1.74,0.65,3.11,1.91,4.12,3.76c1.01,1.85,1.51,4.4,1.51,7.65
				v17.95l-9.72,1.86v-16.16c0-2.24-0.4-3.79-1.2-4.67c-0.8-0.87-1.92-1.17-3.35-0.89c-1.02,0.2-1.96,0.63-2.81,1.32
				c-0.85,0.68-1.52,1.61-2,2.79c-0.48,1.17-0.72,2.63-0.72,4.36v15.17l-9.72,1.86v-42.97l9.72-1.86v20.5l-2.25-2.18
				c1.06-2.48,2.51-4.46,4.35-5.96S292.99,233.86,295.31,233.42z"/>
			<path class="st0" d="M327.13,259.77c-3.04,0.58-5.73,0.4-8.08-0.54c-2.35-0.94-4.2-2.51-5.55-4.7c-1.35-2.2-2.02-4.88-2.02-8.04
				s0.67-6.09,2.02-8.78c1.35-2.69,3.2-4.94,5.55-6.76c2.35-1.82,5.05-3.02,8.08-3.6c3.04-0.58,5.74-0.41,8.11,0.51
				c2.37,0.92,4.22,2.47,5.55,4.64c1.33,2.18,2,4.85,2,8.02s-0.67,6.1-2,8.81c-1.33,2.71-3.18,4.98-5.55,6.82
				C332.87,257.98,330.16,259.19,327.13,259.77z M327.13,251.03c1.12-0.21,2.12-0.7,2.99-1.44s1.56-1.74,2.07-2.97
				c0.51-1.24,0.77-2.65,0.77-4.23s-0.25-2.88-0.77-3.88s-1.2-1.71-2.07-2.12s-1.87-0.51-2.99-0.3c-1.09,0.21-2.07,0.68-2.94,1.43
				s-1.57,1.72-2.1,2.92c-0.53,1.2-0.79,2.59-0.79,4.18s0.26,2.89,0.79,3.93c0.53,1.04,1.23,1.76,2.1,2.18
				S326.04,251.24,327.13,251.03z"/>
			<path class="st0" d="M347.29,266.64v-42.63l9.26-1.77v5.33l-0.05,10.38l0.51,10.33v16.51L347.29,266.64z M364.73,252.59
				c-2.35,0.45-4.37,0.25-6.04-0.61s-2.94-2.39-3.81-4.6c-0.87-2.21-1.3-5.17-1.3-8.87c0-3.74,0.41-6.88,1.23-9.42
				c0.82-2.53,2.05-4.53,3.71-6.01c1.65-1.48,3.73-2.45,6.22-2.93c2.52-0.48,4.82-0.25,6.88,0.68c2.06,0.94,3.7,2.5,4.91,4.68
				c1.21,2.18,1.82,4.93,1.82,8.25c0,3.32-0.61,6.31-1.82,8.98c-1.21,2.66-2.85,4.85-4.91,6.56
				C369.55,251.01,367.25,252.11,364.73,252.59z M362.68,244.24c1.09-0.21,2.07-0.69,2.94-1.43s1.57-1.73,2.1-2.95
				c0.53-1.22,0.79-2.62,0.79-4.21c0-1.58-0.26-2.88-0.79-3.9c-0.53-1.02-1.23-1.73-2.1-2.15s-1.85-0.51-2.94-0.31
				c-1.09,0.21-2.07,0.68-2.94,1.43c-0.87,0.75-1.57,1.73-2.1,2.95c-0.53,1.22-0.79,2.62-0.79,4.21c0,1.58,0.26,2.88,0.79,3.9
				c0.53,1.02,1.23,1.73,2.1,2.15C360.61,244.34,361.59,244.45,362.68,244.24z"/>
		</g>
	</g>
	<g>
		<g>
			<path class="st0" d="M96.96,346.23c-1.23,0-2.43-0.44-3.38-1.26c-1.23-1.07-1.87-2.65-1.75-4.27l9.88-128.38
				c0.17-2.27,1.81-4.15,4.03-4.63l105.4-22.93c1.45-0.32,2.97,0.01,4.16,0.9s1.94,2.24,2.06,3.72l9.88,124.08
				c0.2,2.56-1.52,4.89-4.03,5.43L98.05,346.11C97.69,346.19,97.32,346.23,96.96,346.23z M111.67,216.91l-9.06,117.68l114.02-24.8
				l-9.06-113.74L111.67,216.91z"/>
		</g>
		<g>
			<path class="st0" d="M133.52,228.87c-2.84,0-5.14-2.3-5.14-5.14v-30.87c0-17.86,13.21-34.72,30.07-38.38
				c8.31-1.81,16.24-0.09,22.35,4.83c6.3,5.07,9.91,13.18,9.91,22.24v30.87c0,2.84-2.3,5.14-5.14,5.14s-5.14-2.3-5.14-5.14v-30.87
				c0-6.02-2.16-11.07-6.08-14.23c-3.64-2.93-8.51-3.92-13.71-2.78c-11.91,2.59-21.97,15.57-21.97,28.33v30.87
				C138.66,226.57,136.36,228.87,133.52,228.87z"/>
		</g>
		<g>
			<path class="st0" d="M155.59,296.03c-6.1,0-11.74-2.46-15.69-7.01c-1.86-2.14-1.63-5.39,0.51-7.25c2.14-1.86,5.39-1.64,7.25,0.51
				c2.55,2.94,6.48,4.09,10.78,3.15c4.78-1.04,9.46-4.55,12.51-9.38c1.52-2.4,4.69-3.12,7.09-1.61c2.4,1.51,3.12,4.69,1.61,7.09
				c-4.56,7.22-11.49,12.3-19.02,13.94C158.93,295.85,157.24,296.03,155.59,296.03z"/>
		</g>
		<g>
			<g>
				<path class="st0" d="M137.64,267.8c-2.84,0-5.14-2.3-5.14-5.14v-3.05c0-2.84,2.3-5.14,5.14-5.14s5.14,2.3,5.14,5.14v3.05
					C142.78,265.5,140.47,267.8,137.64,267.8z"/>
			</g>
			<g>
				<path class="st0" d="M181.44,258.27c-2.84,0-5.14-2.3-5.14-5.14v-3.05c0-2.84,2.3-5.14,5.14-5.14s5.14,2.3,5.14,5.14v3.05
					C186.58,255.97,184.28,258.27,181.44,258.27z"/>
			</g>
		</g>
	</g>
	<g>
		<path class="st0" d="M245.27,310.9c-2.37,0-4.5-1.64-5.02-4.05c-0.6-2.77,1.16-5.51,3.93-6.12l96.15-20.92
			c2.77-0.6,5.51,1.16,6.12,3.93c0.6,2.77-1.16,5.51-3.93,6.12l-96.15,20.92C246,310.86,245.64,310.9,245.27,310.9z"/>
	</g>
</g>
</svg>
